<svg width="1080" height="1080" viewBox="660 180 900 850" fill="none" xmlns="http://www.w3.org/2000/svg">
<path d="M1348.72 197.173C1363.95 197.347 1376.95 199.376 1391.48 204.245C1427.67 216.611 1457.53 242.756 1474.56 277.006C1487.69 277.285 1514.43 275.093 1525.24 279.699C1532.93 282.951 1538.98 289.161 1542.03 296.927C1548.33 312.599 1542.74 337.948 1536.2 353.205C1522.63 384.795 1500.42 400.608 1469.77 413.039C1467.93 428.724 1468.16 447.555 1466.35 464.173C1458.59 535.068 1442.44 581.785 1407.64 643.378C1410.53 667.197 1411.86 690.902 1407.96 714.537C1397.68 776.789 1353.22 830.886 1294.09 852.819C1284.55 856.358 1269.43 862.485 1262.01 851.376C1257.82 845.085 1261.95 832.28 1263.55 825.315C1210.69 881.953 1139.16 906.983 1063.66 882.412C1055.98 879.91 1017.14 868.85 1035.84 852.184C1041.55 847.092 1056.67 842.091 1064.54 838.629C1091.94 826.587 1114.92 810.493 1132.01 785.644C1108.08 791.487 1077.54 789.781 1052.35 789.766L961.822 789.841C950.114 789.881 933.421 788.259 922.416 790.109C905.147 793.012 907.966 804.496 917.405 814.252C943.255 840.971 954.476 874.015 961.036 909.862C965.122 938.548 960.881 973.75 951.785 1001.17C945.885 1018.95 935.439 1017.81 921.206 1011.84C876.497 993.067 841.473 959.489 824.384 913.733C797.882 964.164 769.551 994.722 714.782 1014.14C699.463 1019.57 693.546 1014.93 689.323 999.743C675.588 950.349 679.153 897.76 704.309 852.544C728.699 809.677 769.041 778.191 816.539 764.948C819.364 756.492 822.263 741.819 824.854 732.195C829.55 715.101 835.362 698.333 842.252 682C882.639 585 965.969 515.671 1062.35 479.467C1104.19 463.753 1139.03 448.796 1169.61 414.676C1187.44 394.901 1199.48 370.596 1204.4 344.427C1206.79 331.864 1208.05 318.904 1211.21 306.486C1217.22 282.868 1228.93 261.087 1245.32 243.053C1273.41 212.38 1307.79 198.971 1348.72 197.173Z" fill="#2F4157"/>
<path d="M1108.99 495.996C1172.35 489.817 1234.1 532.588 1264.08 586.305C1289.73 631.639 1296.08 685.384 1281.72 735.453C1257.9 817.981 1173.48 884.06 1086.32 858.591C1140.77 831.583 1179.66 782.949 1182.32 720.757C1182.82 708.812 1184.6 665.566 1165.8 666.587C1144.51 667.8 1155.45 695.844 1155.35 710.3C1155.17 732.431 1146.03 756.41 1120.94 760.118C1096.96 763.665 1064.27 761.937 1039.17 761.857L967.038 761.77C939.454 761.769 892.826 757.075 883.074 792.868C876.081 818.536 899.69 832.233 911.185 850.981C937.681 894.199 939.766 936.628 927.502 984.729C915.541 979.175 904.266 972.246 893.908 964.081C864.859 940.956 843.553 901.448 840.298 864.73C832.494 776.681 857.907 686.07 913.013 617.415C926.012 601.021 940.566 585.923 956.472 572.332C992.978 541.276 1060.78 501.252 1108.99 495.996Z" fill="#C7D9E5"/>
<path d="M1339.63 225.371C1394.78 220.69 1426.91 253.284 1454.25 293.614C1461.35 304.103 1480.02 303.471 1491.86 303.567C1498.01 318.012 1502.56 321.036 1515.75 327.926C1504.37 367.754 1487.53 370.971 1456.36 392.478C1452.33 395.259 1441.9 409.686 1438.44 414.606C1427.25 430.526 1415.95 439 1399.58 449.111C1359.64 469.731 1316.91 466.5 1281.03 438.914C1255.98 419.903 1239.52 391.715 1235.27 360.558C1226.47 291.929 1270.91 234.06 1339.63 225.371Z" fill="#C7D9E5"/>
<path d="M1446.58 325.123C1447.18 325.075 1449.52 325.316 1450.28 325.378C1452.74 328.625 1453.29 335.715 1454.24 340.285C1421.85 347.899 1398.79 355.351 1371.3 375.247C1363.4 380.966 1351.42 391.481 1344.13 396.042L1343.18 396.629C1321.6 391.771 1346.94 371.866 1354.03 366.601C1381.62 346.404 1413.15 332.269 1446.58 325.123Z" fill="#2F4157"/>
<path d="M1459.33 347.785C1461.86 349.303 1465.36 359.376 1466.66 362.615C1440.64 373.63 1419.94 385.495 1403.18 409.639C1398.88 415.851 1395.47 425.575 1389.98 430.025C1369.12 421.219 1388.5 400.497 1397.44 390.039C1414.17 370.453 1435.89 357.744 1459.33 347.785Z" fill="#2F4157"/>
<path d="M1372.77 277.295C1393 276.303 1404.31 284.166 1411.26 303.278C1405.89 304.711 1391.65 309.134 1387.1 308.507C1383.29 305.367 1382.37 303.666 1377.9 306.554C1376.11 314.303 1374.72 312.194 1368.67 315.138C1346.43 325.955 1340.76 309.906 1351.02 292.185C1355.86 283.832 1362.7 279.725 1372.77 277.295Z" fill="#2F4157"/>
<path d="M1214.87 396.242C1220.84 404.357 1225.65 420.891 1235.75 433.124C1260.69 463.314 1292.79 485.101 1332.38 489.105C1376.53 493.572 1406.52 480.997 1440.04 453.998C1430.15 532.2 1412.44 596.578 1362.14 660.285C1345.99 679.509 1334.28 690.346 1315.59 706.64C1325.93 596.531 1259.22 492.135 1148.4 469.568C1179.11 447.535 1196.83 429.244 1214.87 396.242Z" fill="#C7D9E5"/>
<path d="M811.142 795.516C811.513 795.834 812.169 797.14 812.455 797.643C811.218 816.485 811.918 836.313 810.397 854.222C807.479 889.901 792.387 923.492 767.651 949.363C758.462 958.841 726.505 983.864 714.414 984.021C695.891 898.799 730.361 829.419 811.142 795.516Z" fill="#C7D9E5"/>
<path d="M1382.59 678.969C1385.18 690.894 1379.41 719.636 1375.42 731.234C1360.24 775.281 1333.27 803.508 1292.59 824.125C1292.22 822.578 1293.41 813.737 1293.49 811.087C1294.35 782.089 1297.73 772.548 1307.62 746.201C1341.84 723.191 1356.01 709.119 1382.59 678.969Z" fill="#C7D9E5"/>
</svg>
