<svg width="896" height="402" viewBox="0 0 896 402" fill="none" xmlns="http://www.w3.org/2000/svg">
<path d="M86.1 287H9.9V280.4C12.1 280.4 14.2 279.8 16.2 278.6C17.8 277.6 19.3 276 20.7 273.8C22.1 271.4 23 267.9 23.4 263.3V109.4C23 104.8 22.1 101.4 20.7 99.2C19.3 96.8 17.8 95.1 16.2 94.1C14.2 92.9 12.1 92.3 9.9 92.3V85.7H154.8L148.2 118.1H141.6C142.6 114.1 142.1 110.5 140.1 107.3C138.5 104.7 135.4 102.3 130.8 100.1C126.4 97.9 119.1 96.8 108.9 96.8H73.2C72.6 99.2 72.3 102.1 72.3 105.5V167H92.1C97.7 167 102.1 165.9 105.3 163.7C108.7 161.5 111.4 159.1 113.4 156.5C115.6 153.5 117.2 150 118.2 146H124.8V195.2H118.2C117.2 191.2 115.6 187.6 113.4 184.4C111.4 181.8 108.7 179.4 105.3 177.2C102.1 175 97.7 173.9 92.1 173.9H72.3V259.7C72.3 265.1 73 269.3 74.4 272.3C76 275.1 77.6 277.1 79.2 278.3C81.2 279.7 83.5 280.4 86.1 280.4V287ZM207.45 146.9C217.05 146.9 225.95 148.8 234.15 152.6C242.55 156.2 249.85 161.2 256.05 167.6C262.45 173.8 267.45 181.2 271.05 189.8C274.65 198.4 276.45 207.5 276.45 217.1C276.45 226.7 274.65 235.8 271.05 244.4C267.45 253 262.45 260.5 256.05 266.9C249.85 273.1 242.55 278.1 234.15 281.9C225.95 285.5 217.05 287.3 207.45 287.3C197.85 287.3 188.85 285.5 180.45 281.9C172.05 278.1 164.65 273.1 158.25 266.9C152.05 260.5 147.15 253 143.55 244.4C139.95 235.8 138.15 226.7 138.15 217.1C138.15 207.5 139.95 198.4 143.55 189.8C147.15 181.2 152.05 173.8 158.25 167.6C164.65 161.2 172.05 156.2 180.45 152.6C188.85 148.8 197.85 146.9 207.45 146.9ZM207.45 155.9C202.65 155.9 198.85 157.5 196.05 160.7C193.25 163.9 191.05 168.2 189.45 173.6C188.05 179 187.05 185.4 186.45 192.8C186.05 200.2 185.85 208.1 185.85 216.5C185.85 224.9 186.05 232.8 186.45 240.2C187.05 247.4 188.05 253.7 189.45 259.1C191.05 264.5 193.25 268.8 196.05 272C198.85 275.2 202.65 276.8 207.45 276.8C212.25 276.8 216.05 275.2 218.85 272C221.65 268.8 223.75 264.5 225.15 259.1C226.75 253.7 227.75 247.4 228.15 240.2C228.55 232.8 228.75 224.9 228.75 216.5C228.75 208.1 228.55 200.2 228.15 192.8C227.75 185.4 226.75 179 225.15 173.6C223.75 168.2 221.65 163.9 218.85 160.7C216.05 157.5 212.25 155.9 207.45 155.9ZM420.101 254.6C413.901 264.6 406.901 272.6 399.101 278.6C391.301 284.4 381.201 287.3 368.801 287.3C356.801 287.3 346.001 285.5 336.401 281.9C327.001 278.1 319.101 273.1 312.701 266.9C306.301 260.5 301.401 253 298.001 244.4C294.601 235.8 292.901 226.7 292.901 217.1C292.901 207.5 294.801 198.4 298.601 189.8C302.601 181.2 307.801 173.7 314.201 167.3C320.801 160.7 328.401 155.6 337.001 152C345.601 148.2 354.701 146.3 364.301 146.3C372.501 146.3 379.501 147.1 385.301 148.7C391.301 150.1 396.401 152.2 400.601 155C404.801 157.6 408.201 160.7 410.801 164.3C413.601 167.9 416.001 171.8 418.001 176L396.701 180.2C398.301 173.6 397.101 167.9 393.101 163.1C389.101 158.3 383.901 155.9 377.501 155.9C369.901 155.9 363.701 158.4 358.901 163.4C354.101 168.4 350.301 174.2 347.501 180.8C344.701 187.4 342.801 194.1 341.801 200.9C340.801 207.7 340.301 212.9 340.301 216.5C340.301 219.3 340.401 224.1 340.601 230.9C341.001 237.5 342.201 244.2 344.201 251C346.201 257.8 349.401 263.8 353.801 269C358.401 274.2 364.901 276.8 373.301 276.8C378.101 276.8 382.401 275.8 386.201 273.8C390.201 271.6 393.601 268.9 396.401 265.7C399.401 262.5 401.801 259.1 403.601 255.5C405.601 251.9 407.001 248.6 407.801 245.6L420.101 254.6ZM511.366 212.6C507.566 214.6 503.166 216.5 498.166 218.3C493.366 219.9 488.766 221.9 484.366 224.3C480.166 226.7 476.566 229.9 473.566 233.9C470.766 237.9 469.366 243.4 469.366 250.4C469.366 258.2 471.166 263.8 474.766 267.2C478.366 270.4 482.766 272 487.966 272C491.966 272 495.966 271.3 499.966 269.9C504.166 268.3 508.066 266.2 511.666 263.6C511.466 262.8 511.366 261.5 511.366 259.7V212.6ZM511.366 176.6C510.966 171.2 509.466 166.6 506.866 162.8C504.266 159 499.266 157.1 491.866 157.1C486.866 157.1 482.966 158.4 480.166 161C477.366 163.6 475.966 166.3 475.966 169.1C475.966 172.3 476.666 174.7 478.066 176.3C479.666 177.7 481.366 178.6 483.166 179C485.166 179.6 487.466 179.8 490.066 179.6C490.066 184.4 489.366 188.3 487.966 191.3C486.566 194.1 484.766 196.4 482.566 198.2C480.566 199.8 478.266 200.9 475.666 201.5C473.266 201.9 470.966 202.1 468.766 202.1C463.766 202.1 459.766 201.1 456.766 199.1C453.766 197.1 451.466 194.8 449.866 192.2C448.466 189.6 447.566 187.2 447.166 185C446.766 182.6 446.566 181 446.566 180.2C446.566 174.4 448.066 169.4 451.066 165.2C454.066 161 457.766 157.5 462.166 154.7C466.766 151.9 471.666 149.8 476.866 148.4C482.266 147 487.266 146.3 491.866 146.3C501.866 146.3 510.966 147.1 519.166 148.7C527.366 150.1 534.466 152.5 540.466 155.9C546.466 159.3 551.166 163.8 554.566 169.4C558.166 174.8 560.166 181.4 560.566 189.2V263.3C560.966 267.9 561.866 271.4 563.266 273.8C564.666 276.2 566.166 277.9 567.766 278.9C569.566 280.1 571.666 280.7 574.066 280.7V287H544.666C542.866 287 540.666 286.9 538.066 286.7C535.466 286.3 532.766 285.7 529.966 284.9C527.366 284.1 524.766 282.9 522.166 281.3C519.566 279.7 517.366 277.7 515.566 275.3C512.166 278.7 507.566 281.9 501.766 284.9C496.166 287.7 488.966 289.1 480.166 289.1C469.766 289.1 461.166 288.3 454.366 286.7C447.566 284.9 442.166 282.5 438.166 279.5C434.366 276.5 431.666 273.1 430.066 269.3C428.666 265.3 427.966 261.1 427.966 256.7C427.966 249.3 429.266 243.1 431.866 238.1C434.466 233.1 437.766 228.9 441.766 225.5C445.966 222.1 450.666 219.4 455.866 217.4C461.066 215.4 466.266 213.7 471.466 212.3C476.866 210.9 482.066 209.6 487.066 208.4C492.066 207.2 496.266 205.9 499.666 204.5C502.666 203.3 504.866 202 506.266 200.6C507.866 199 509.066 197.5 509.866 196.1C510.666 194.7 511.166 193.2 511.366 191.6V176.6Z" fill="white"/>
<circle cx="605" cy="273" r="14" fill="#2F4157" stroke="white" stroke-width="6"/>
<path d="M744.214 51.9304C748.225 51.9762 751.648 52.5106 755.476 53.7929C765.007 57.0498 772.87 63.9359 777.357 72.9563C780.813 73.0298 787.858 72.4525 790.705 73.6655C792.728 74.5222 794.321 76.1577 795.125 78.203C796.785 82.3307 795.311 89.0069 793.589 93.0252C790.015 101.345 784.166 105.51 776.095 108.784C775.611 112.915 775.671 117.874 775.193 122.251C773.15 140.923 768.896 153.227 759.731 169.449C760.492 175.723 760.844 181.966 759.817 188.191C757.107 204.586 745.398 218.834 729.824 224.611C727.312 225.543 723.332 227.156 721.378 224.231C720.273 222.574 721.36 219.201 721.781 217.367C707.861 232.284 689.022 238.876 669.138 232.405C667.114 231.746 656.884 228.833 661.81 224.444C663.315 223.102 667.296 221.785 669.369 220.874C676.586 217.702 682.638 213.463 687.139 206.919C680.835 208.457 672.792 208.008 666.159 208.004L642.316 208.024C639.232 208.035 634.836 207.607 631.937 208.094C627.389 208.859 628.132 211.884 630.618 214.453C637.426 221.49 640.381 230.193 642.109 239.634C643.185 247.19 642.068 256.461 639.672 263.682C638.118 268.367 635.367 268.066 631.619 266.493C619.844 261.548 610.619 252.705 606.119 240.654C599.139 253.936 591.677 261.984 577.253 267.099C573.218 268.529 571.66 267.307 570.547 263.307C566.93 250.298 567.869 236.447 574.494 224.538C580.918 213.248 591.543 204.956 604.052 201.468C604.796 199.241 605.56 195.376 606.242 192.841C607.479 188.339 609.01 183.923 610.824 179.621C621.461 154.074 643.408 135.814 668.793 126.279C679.811 122.141 688.987 118.201 697.042 109.215C701.737 104.007 704.908 97.6054 706.204 90.7134C706.833 87.4046 707.165 83.9911 707.998 80.7207C709.58 74.5002 712.665 68.7636 716.98 64.014C724.379 55.9356 733.432 52.4038 744.214 51.9304Z" fill="white"/>
<path d="M681.076 130.633C697.763 129.005 714.027 140.27 721.921 154.418C728.677 166.358 730.351 180.513 726.568 193.7C720.293 215.435 698.061 232.839 675.105 226.131C689.445 219.018 699.689 206.209 700.39 189.829C700.521 186.683 700.988 175.293 696.038 175.562C690.429 175.882 693.311 183.268 693.285 187.075C693.239 192.904 690.83 199.219 684.223 200.196C677.908 201.13 669.297 200.675 662.686 200.654L643.69 200.631C636.425 200.631 624.144 199.394 621.576 208.821C619.734 215.582 625.952 219.189 628.98 224.127C635.958 235.509 636.507 246.684 633.277 259.353C630.127 257.89 627.157 256.065 624.429 253.914C616.779 247.824 611.167 237.419 610.31 227.748C608.255 204.558 614.948 180.693 629.461 162.611C632.884 158.294 636.718 154.317 640.907 150.738C650.521 142.558 668.378 132.017 681.076 130.633Z" fill="#2F4157"/>
<path d="M741.819 59.3569C756.343 58.1241 764.807 66.7086 772.006 77.3304C773.877 80.093 778.793 79.9265 781.912 79.9519C783.531 83.7562 784.73 84.5527 788.204 86.3674C785.208 96.857 780.773 97.7042 772.564 103.369C771.502 104.101 768.755 107.901 767.843 109.197C764.896 113.39 761.92 115.621 757.608 118.284C747.089 123.715 735.836 122.864 726.385 115.599C719.79 110.592 715.455 103.168 714.333 94.9619C712.015 76.8867 723.721 61.6455 741.819 59.3569Z" fill="#2F4157"/>
<path d="M769.986 85.6292C770.146 85.6163 770.761 85.6798 770.962 85.6961C771.608 86.5514 771.754 88.4187 772.003 89.6223C763.473 91.6276 757.402 93.5902 750.16 98.8304C748.08 100.337 744.923 103.106 743.004 104.307L742.755 104.462C737.072 103.182 743.745 97.94 745.613 96.5532C752.878 91.234 761.182 87.5111 769.986 85.6292Z" fill="white"/>
<path d="M773.345 91.5975C774.012 91.9974 774.933 94.6504 775.277 95.5034C768.424 98.4045 762.97 101.53 758.558 107.888C757.425 109.524 756.526 112.086 755.081 113.258C749.588 110.938 754.689 105.481 757.044 102.726C761.451 97.5679 767.17 94.2205 773.345 91.5975Z" fill="white"/>
<path d="M750.549 73.0325C755.877 72.7711 758.855 74.8423 760.684 79.8758C759.27 80.2531 755.519 81.418 754.323 81.2529C753.319 80.426 753.075 79.978 751.899 80.7385C751.427 82.7796 751.061 82.224 749.467 82.9994C743.61 85.8482 742.116 81.6215 744.82 76.954C746.094 74.7541 747.896 73.6725 750.549 73.0325Z" fill="white"/>
<path d="M708.962 104.36C710.533 106.497 711.801 110.852 714.462 114.074C721.029 122.025 729.484 127.763 739.91 128.818C751.539 129.994 759.436 126.682 768.263 119.572C765.66 140.168 760.996 157.123 747.748 173.902C743.496 178.965 740.411 181.82 735.487 186.111C738.211 157.111 720.642 129.616 691.454 123.672C699.543 117.869 704.21 113.052 708.962 104.36Z" fill="#2F4157"/>
<path d="M602.631 209.519C602.729 209.602 602.902 209.946 602.977 210.079C602.651 215.041 602.836 220.264 602.435 224.98C601.667 234.377 597.692 243.224 591.177 250.038C588.757 252.534 580.34 259.125 577.156 259.166C572.278 236.721 581.356 218.448 602.631 209.519Z" fill="#2F4157"/>
<path d="M753.132 178.823C753.816 181.964 752.297 189.534 751.244 192.588C747.247 204.189 740.145 211.624 729.429 217.054C729.332 216.646 729.647 214.318 729.667 213.62C729.893 205.982 730.783 203.469 733.389 196.53C742.403 190.47 746.134 186.764 753.132 178.823Z" fill="#2F4157"/>
</svg>
